<?xml version="1.0" encoding="UTF-8" standalone="no"?><svg xmlns="http://www.w3.org/2000/svg" viewBox="0 0 32 32"><defs><style>.cls-1{fill:#3aafa9;}.cls-2{fill:#17252a;}.cls-3{fill:#f7b8c7;}</style></defs><g id="Layer_2" data-name="Layer 2"><rect class="cls-1" x="1" y="6.61" width="18.77" height="18.77"/><path class="cls-2" d="M2.61,24.6l7-17.21H11L18,24.6H16L10,9.41h.73L4.56,24.6Zm3.23-4.48v-1.6h9v1.6Z"/><path class="cls-3" d="M25,24.85A5.59,5.59,0,0,1,22,24a6,6,0,0,1-2.1-2.19,6.24,6.24,0,0,1-.77-3.11,6.4,6.4,0,0,1,.77-3.14A6,6,0,0,1,22,13.4a5.54,5.54,0,0,1,3-.81,5.2,5.2,0,0,1,2.42.54A4.58,4.58,0,0,1,30,16.87v3.68a5,5,0,0,1-.81,2.25,4.63,4.63,0,0,1-1.72,1.51A5.11,5.11,0,0,1,25,24.85Zm.27-1.67a3.78,3.78,0,0,0,3-1.23,4.64,4.64,0,0,0,1.1-3.23,5,5,0,0,0-.5-2.32,3.68,3.68,0,0,0-1.43-1.57,4,4,0,0,0-2.15-.56,4.15,4.15,0,0,0-3.7,2.18,5.06,5.06,0,0,0,0,4.61,4.29,4.29,0,0,0,1.54,1.57,4.23,4.23,0,0,0,2.2.55Zm4,1.42V21.45l.35-2.9-.35-2.83V12.84H31V24.6Z"/></g></svg>