<?xml version="1.0" encoding="UTF-8" standalone="no"?><svg id="AA_logo" xmlns="http://www.w3.org/2000/svg" viewBox="0 0 250 50"><defs><style>.cls-1{fill:#ffd22a;}.cls-2{fill:#3aafa9;}.cls-3{fill:#f7b8c7;}.cls-4{fill:#17252a;}</style></defs><path class="cls-1" d="M85.47,8.13a5.75,5.75,0,1,1-5.75,5.75,5.76,5.76,0,0,1,5.75-5.75m0-3.13a8.88,8.88,0,1,0,8.88,8.88A8.88,8.88,0,0,0,85.47,5Z"/><rect class="cls-2" x="19.13" y="10.22" width="28.21" height="28.21"/><rect class="cls-3" x="110.54" y="13.88" width="41.79" height="20.89"/><path class="cls-2" d="M190.73,25.37V22.93h7.71a5.66,5.66,0,0,0,4-1.33,4.65,4.65,0,0,0,1.41-3.54,4.77,4.77,0,0,0-1.39-3.55,5.52,5.52,0,0,0-4-1.37h-7.74V10.62h7.74a9.75,9.75,0,0,1,4.46,1,6.85,6.85,0,0,1,2.84,2.61,7.3,7.3,0,0,1,1,3.8,7.43,7.43,0,0,1-1,3.89,6.82,6.82,0,0,1-2.84,2.57,9.89,9.89,0,0,1-4.46.93Z"/><polygon class="cls-2" points="204.98 37.25 194.99 24.94 197.78 24.05 208.66 37.25 204.98 37.25"/><path class="cls-1" d="M209.23,13.22v-2.6h21.64v2.6Zm9.41,24V11.36h2.86V37.25Z"/><path class="cls-4" d="M21.55,37.25,32.11,11.38h2.11L44.71,37.25h-3L32.6,14.42h1.09L24.48,37.25Zm4.85-6.73V28.11H39.94v2.41Z"/><path class="cls-4" d="M55.58,37.63a9.13,9.13,0,0,1-4.68-1.22,9,9,0,0,1-3.29-3.33,9.78,9.78,0,0,1,0-9.39A8.88,8.88,0,0,1,50.9,20.4a9.21,9.21,0,0,1,4.68-1.2,9.32,9.32,0,0,1,3.76.75,8.35,8.35,0,0,1,2.94,2.11l-1.77,1.8a6.24,6.24,0,0,0-2.16-1.56,7,7,0,0,0-2.77-.54,6.46,6.46,0,0,0-3.31.86A6.15,6.15,0,0,0,50,25a6.92,6.92,0,0,0-.83,3.41A7.11,7.11,0,0,0,50,31.82a6.12,6.12,0,0,0,2.29,2.39,6.46,6.46,0,0,0,3.31.86,7.15,7.15,0,0,0,2.79-.54A6.53,6.53,0,0,0,60.58,33l1.77,1.76a8.36,8.36,0,0,1-3,2.15A9.45,9.45,0,0,1,55.58,37.63Z"/><path class="cls-4" d="M73.71,37.63A9.13,9.13,0,0,1,69,36.41a9,9,0,0,1-3.29-3.33,9.71,9.71,0,0,1,0-9.39A8.88,8.88,0,0,1,69,20.4a9.21,9.21,0,0,1,4.68-1.2,9.32,9.32,0,0,1,3.76.75,8.44,8.44,0,0,1,2.94,2.11l-1.77,1.8a6.24,6.24,0,0,0-2.16-1.56,7,7,0,0,0-2.77-.54,6.46,6.46,0,0,0-3.31.86A6.15,6.15,0,0,0,68.11,25a6.92,6.92,0,0,0-.83,3.41,7.11,7.11,0,0,0,.83,3.44,6.12,6.12,0,0,0,2.29,2.39,6.46,6.46,0,0,0,3.31.86,7.07,7.07,0,0,0,2.78-.54A6.47,6.47,0,0,0,78.71,33l1.77,1.76a8.36,8.36,0,0,1-3,2.15A9.45,9.45,0,0,1,73.71,37.63Z"/><path class="cls-4" d="M85.48,15.78a1.68,1.68,0,0,1-1.28-.57,1.84,1.84,0,0,1-.52-1.31,1.79,1.79,0,0,1,.52-1.32,1.75,1.75,0,0,1,1.28-.53,1.79,1.79,0,0,1,1.34.53,1.82,1.82,0,0,1,.51,1.32,1.88,1.88,0,0,1-.51,1.31A1.72,1.72,0,0,1,85.48,15.78ZM84.17,37.25V19.58h2.67V37.25Z"/><path class="cls-4" d="M99.7,37.63a8.3,8.3,0,0,1-4.44-1.2,8.59,8.59,0,0,1-3.08-3.3,9.59,9.59,0,0,1-1.13-4.68,9.69,9.69,0,0,1,1.13-4.72,8.66,8.66,0,0,1,3.1-3.31A8.28,8.28,0,0,1,99.7,19.2a8.11,8.11,0,0,1,3.59.79,7,7,0,0,1,4,5.64v5.53A7.14,7.14,0,0,1,106,34.53a7.27,7.27,0,0,1-2.67,2.27A8,8,0,0,1,99.7,37.63Zm.45-2.52a5.88,5.88,0,0,0,5.4-3.23,8.15,8.15,0,0,0,0-7,5.9,5.9,0,0,0-2.18-2.35,6.07,6.07,0,0,0-3.24-.85,6.14,6.14,0,0,0-3.25.86A6.3,6.3,0,0,0,94.62,25a7.12,7.12,0,0,0-.83,3.47,7.25,7.25,0,0,0,.81,3.47,5.8,5.8,0,0,0,2.26,2.37A6.33,6.33,0,0,0,100.15,35.11Zm8.69,2.14h-2.67V32.51l.56-4.36-.56-4.25V10.62h2.67Z"/><path class="cls-4" d="M122.26,37.63a9.37,9.37,0,0,1-4.73-1.2,8.89,8.89,0,0,1-3.33-3.31A9.25,9.25,0,0,1,113,28.38a9.37,9.37,0,0,1,1.19-4.69,8.77,8.77,0,0,1,3.25-3.29A9.05,9.05,0,0,1,122,19.2a8.37,8.37,0,0,1,4.31,1.09,7.9,7.9,0,0,1,2.93,3,9.11,9.11,0,0,1,1.07,4.46,6,6,0,0,1,0,.69,6.44,6.44,0,0,1-.15.92h-15.3V27.14H128.7l-.94.82a7.26,7.26,0,0,0-.66-3.33,5.26,5.26,0,0,0-2-2.2,5.88,5.88,0,0,0-3.1-.79,6.51,6.51,0,0,0-3.35.85,6,6,0,0,0-2.23,2.33,7.16,7.16,0,0,0-.81,3.48,7.37,7.37,0,0,0,.84,3.58,6.14,6.14,0,0,0,2.37,2.4,7,7,0,0,0,3.52.87,7.3,7.3,0,0,0,2.93-.59,5.87,5.87,0,0,0,2.3-1.74l1.73,1.72a8,8,0,0,1-3.09,2.3A9.81,9.81,0,0,1,122.26,37.63Z"/><path class="cls-4" d="M134.34,37.25V19.58H137V37.25Zm12.9,0V26.87a5.21,5.21,0,0,0-1.39-3.74,4.87,4.87,0,0,0-3.65-1.45,5.31,5.31,0,0,0-2.67.66,4.92,4.92,0,0,0-1.85,1.83,5.18,5.18,0,0,0-.67,2.66l-1.21-.67a6.87,6.87,0,0,1,.95-3.58,6.75,6.75,0,0,1,2.55-2.48,7.4,7.4,0,0,1,3.65-.9,6.74,6.74,0,0,1,3.61,1A6.84,6.84,0,0,1,149,22.81a7.54,7.54,0,0,1,.89,3.61V37.25Z"/><path class="cls-4" d="M152.88,22v-2.4h11.54V22Zm4.44,15.27V12.13H160V37.25Z"/><path class="cls-3" d="M175,37.63a8.46,8.46,0,0,1-4.48-1.22,9,9,0,0,1-3.15-3.29,9.33,9.33,0,0,1-1.17-4.67,9.5,9.5,0,0,1,1.17-4.72,8.92,8.92,0,0,1,3.14-3.31A8.31,8.31,0,0,1,175,19.2a7.89,7.89,0,0,1,3.63.81,6.89,6.89,0,0,1,3.82,5.62v5.53a7.46,7.46,0,0,1-1.22,3.38,6.91,6.91,0,0,1-2.58,2.28A7.8,7.8,0,0,1,175,37.63Zm.41-2.52a5.66,5.66,0,0,0,4.44-1.84,7,7,0,0,0,1.66-4.85,7.74,7.74,0,0,0-.75-3.5,5.63,5.63,0,0,0-2.15-2.35,6.06,6.06,0,0,0-3.23-.85A6.23,6.23,0,0,0,169.82,25a7.57,7.57,0,0,0,0,6.93,6.31,6.31,0,0,0,2.31,2.36A6.39,6.39,0,0,0,175.44,35.11Zm5.95,2.14V32.51l.52-4.36-.52-4.25V19.58h2.67V37.25Z"/><path class="cls-4" d="M189.32,37.25V10.62H192V37.25Z"/></svg>